<?xml version="1.0" encoding="UTF-8"?>
<!--Generator: Apple Native CoreSVG 341-->
<!DOCTYPE svg
PUBLIC "-//W3C//DTD SVG 1.1//EN"
       "http://www.w3.org/Graphics/SVG/1.1/DTD/svg11.dtd">
<svg version="1.1" xmlns="http://www.w3.org/2000/svg" xmlns:xlink="http://www.w3.org/1999/xlink" viewBox="0 0 65.7129 69.4043">
 <g>
  <rect height="69.4043" opacity="0" width="65.7129" x="0" y="0"/>
  <path d="M8.58398 69.375L56.8945 69.375C62.7246 69.375 65.4785 67.5586 65.4785 63.6328C65.4785 53.7598 53.0273 39.5801 32.7246 39.5801C12.4512 39.5801 0 53.7598 0 63.6328C0 67.5586 2.75391 69.375 8.58398 69.375ZM7.14844 64.4824C5.71289 64.4824 5.18555 64.1016 5.18555 63.0469C5.18555 56.2207 15.1172 44.502 32.7246 44.502C50.3613 44.502 60.293 56.2207 60.293 63.0469C60.293 64.1016 59.7656 64.4824 58.3301 64.4824ZM32.7832 34.5996C41.6602 34.5996 48.8086 26.7773 48.8086 17.0801C48.8086 7.55859 41.6602 0 32.7832 0C23.9355 0 16.7285 7.67578 16.7285 17.1387C16.7285 26.8066 23.9062 34.5996 32.7832 34.5996ZM32.7832 29.707C26.8359 29.707 21.9141 24.1992 21.9141 17.1387C21.9141 10.2832 26.8066 4.89258 32.7832 4.89258C38.7598 4.89258 43.623 10.1953 43.623 17.0801C43.623 24.1406 38.7305 29.707 32.7832 29.707Z" fill="black" fill-opacity="0.85"/>
 </g>
</svg>
